<?xml version="1.0" standalone="no"?>
<!DOCTYPE svg PUBLIC "-//W3C//DTD SVG 20010904//EN"
 "http://www.w3.org/TR/2001/REC-SVG-20010904/DTD/svg10.dtd">
<svg version="1.0" xmlns="http://www.w3.org/2000/svg"
 width="640.000000pt" height="640.000000pt" viewBox="0 0 640.000000 640.000000"
 preserveAspectRatio="xMidYMid meet">
<metadata>
Created by potrace 1.11, written by Peter Selinger 2001-2013
</metadata>
<g transform="translate(0.000000,640.000000) scale(0.100000,-0.100000)"
fill="#000000" stroke="none">
<path d="M3175 6386 c-11 -7 -47 -28 -80 -46 -33 -18 -67 -39 -76 -46 -8 -8
-20 -14 -25 -14 -5 0 -32 -15 -59 -33 l-50 -32 0 -347 c1 -191 3 -350 7 -353
3 -3 12 0 19 7 8 7 35 25 60 38 26 14 85 46 131 73 47 26 90 47 96 47 6 0 34
-13 62 -30 28 -16 53 -30 55 -30 2 0 61 -34 130 -75 70 -41 129 -75 131 -75 2
0 33 -18 69 -40 36 -22 68 -40 70 -40 3 0 22 -10 43 -23 20 -13 62 -37 92 -54
30 -16 195 -110 365 -208 171 -97 329 -188 352 -200 22 -13 59 -35 82 -49 22
-14 46 -26 53 -26 13 0 -31 -39 -44 -40 -4 0 -48 -25 -99 -55 -50 -30 -93 -55
-95 -55 -2 0 -88 -49 -191 -108 l-188 -108 -60 34 c-33 19 -80 46 -105 60 -25
14 -78 45 -118 69 -41 24 -75 43 -77 43 -2 0 -38 20 -79 45 -42 25 -79 45 -81
45 -3 0 -34 18 -70 40 -36 22 -70 40 -75 40 -6 0 -10 5 -10 10 0 6 -9 10 -19
10 -11 0 -21 4 -23 8 -1 5 -41 29 -86 55 -71 40 -87 45 -105 36 -80 -42 -274
-154 -282 -164 -8 -9 -13 -650 -6 -708 1 -8 84 37 114 61 9 8 17 13 17 10 0
-4 37 16 82 43 44 27 87 49 94 49 7 0 68 -32 136 -71 67 -39 143 -83 168 -97
25 -13 72 -40 105 -60 33 -19 85 -48 115 -65 30 -17 67 -38 82 -49 14 -10 31
-18 36 -18 6 0 17 -6 24 -13 7 -7 24 -18 38 -24 42 -21 109 -60 125 -73 8 -7
15 -9 15 -6 0 4 7 0 16 -9 9 -9 24 -13 34 -10 10 3 101 53 202 111 101 59 206
118 233 134 28 15 73 41 101 58 28 16 78 45 110 63 33 18 73 40 89 50 17 10
41 24 55 32 53 29 130 73 275 157 83 47 157 89 165 93 8 4 30 16 47 27 32 19
419 241 486 278 18 10 49 29 70 41 l38 23 -67 39 c-36 22 -69 39 -72 39 -3 0
-13 6 -21 14 -9 7 -47 30 -86 51 -69 37 -156 87 -185 105 -15 10 -458 262
-540 308 -25 13 -49 28 -55 32 -5 4 -30 18 -55 32 -25 14 -252 143 -505 288
-253 144 -476 272 -495 282 -171 98 -402 230 -430 247 -19 11 -60 34 -90 51
-30 17 -77 43 -105 60 -60 34 -56 33 -80 16z"/>
<path d="M2207 5834 c-21 -14 -52 -33 -70 -43 -82 -46 -224 -127 -242 -138
-11 -7 -27 -16 -35 -20 -45 -21 -206 -117 -211 -125 -3 -5 -5 -725 -5 -1599
l1 -1591 515 -294 c283 -162 538 -307 565 -323 68 -38 403 -229 440 -252 l31
-18 79 46 c44 25 103 59 130 75 28 16 61 34 75 41 14 6 30 15 35 20 10 8 386
223 510 292 l60 33 50 -28 c28 -16 61 -35 75 -43 103 -57 132 -74 185 -105 33
-19 80 -46 105 -60 25 -14 59 -33 75 -43 17 -10 53 -30 82 -45 l52 -28 -49
-33 c-27 -18 -51 -33 -53 -33 -2 0 -91 -49 -197 -110 -105 -60 -196 -110 -201
-110 -5 0 -9 -4 -9 -8 0 -4 -12 -13 -27 -20 -16 -7 -41 -21 -58 -30 -97 -56
-343 -197 -369 -212 -17 -9 -55 -31 -84 -49 -29 -17 -57 -31 -62 -31 -6 0 -10
-4 -10 -8 0 -4 -12 -13 -27 -19 -16 -7 -53 -26 -83 -44 -128 -75 -188 -109
-236 -134 l-52 -27 -113 65 c-63 36 -130 74 -149 86 -19 11 -51 29 -70 39 -30
16 -253 145 -300 173 -51 31 -683 389 -686 389 -2 0 -32 17 -66 38 -35 21 -70
42 -78 46 -8 4 -24 12 -35 19 -24 14 -116 67 -165 95 -84 46 -286 163 -300
172 -8 6 -26 16 -40 22 -14 7 -27 15 -30 18 -3 3 -16 11 -30 17 -14 7 -44 23
-66 36 l-42 23 0 1593 c0 876 -2 1595 -5 1597 -2 3 -54 -24 -114 -59 -60 -35
-116 -67 -124 -71 -8 -4 -23 -12 -34 -19 -29 -17 -227 -131 -245 -140 -8 -4
-33 -18 -55 -31 l-40 -24 -3 -1606 c-1 -985 2 -1606 7 -1606 5 0 46 -22 90
-50 45 -27 81 -46 81 -43 0 3 8 -1 18 -9 9 -9 47 -32 84 -52 37 -19 85 -46
105 -59 21 -13 45 -27 53 -30 8 -4 29 -15 45 -25 17 -10 50 -30 75 -44 25 -14
80 -46 123 -72 43 -25 80 -46 82 -46 1 0 51 -28 111 -63 60 -35 116 -66 124
-70 8 -4 29 -15 45 -25 17 -10 50 -30 75 -44 25 -14 101 -58 169 -97 68 -39
126 -71 129 -71 2 0 16 -8 30 -19 15 -10 50 -31 77 -45 28 -15 73 -41 100 -57
28 -17 58 -33 68 -36 9 -3 17 -9 17 -14 0 -5 5 -9 11 -9 6 0 39 -17 73 -37 33
-21 63 -38 66 -38 3 0 16 -8 30 -16 14 -9 45 -27 70 -41 97 -55 121 -69 155
-88 19 -11 51 -29 70 -40 80 -45 103 -59 160 -93 33 -19 65 -36 70 -37 6 -1
17 -7 25 -14 8 -8 45 -30 82 -50 61 -32 101 -55 163 -93 11 -7 41 -23 66 -37
l47 -25 361 207 c396 227 415 238 481 274 74 41 854 487 870 497 8 6 31 19 50
29 102 56 986 564 992 570 4 4 -56 43 -134 87 -77 44 -159 91 -182 104 -22 13
-55 32 -73 42 -18 10 -174 99 -348 199 -174 99 -320 180 -326 180 -5 0 -9 5
-9 10 0 6 -5 10 -10 10 -6 0 -43 20 -83 44 -39 24 -82 47 -94 50 -13 4 -23 11
-23 15 0 4 -12 13 -27 20 -26 12 -116 63 -427 242 -65 38 -123 69 -130 69 -11
0 -35 -13 -221 -120 -139 -80 -170 -97 -225 -128 -25 -13 -49 -28 -55 -32 -5
-5 -37 -23 -70 -41 -33 -17 -92 -52 -132 -75 -40 -24 -99 -58 -131 -74 l-58
-31 -459 262 c-253 145 -462 266 -465 270 -3 4 -5 721 -5 1593 0 1051 -3 1586
-10 1585 -5 0 -27 -11 -48 -25z"/>
</g>
</svg>
