<svg width="13" height="14" viewBox="0 0 13 14" fill="none" xmlns="http://www.w3.org/2000/svg">
<path d="M5.18004 1.99336C4.09337 7.02003 7.68004 10.2667 10.2867 11.1934C9.36004 11.92 8.20671 12.3334 7.00004 12.3334C4.06004 12.3334 1.66671 9.94003 1.66671 7.00003C1.66671 4.70003 3.13337 2.73336 5.18004 1.99336ZM6.99337 0.340027C3.26671 0.340027 0.333374 3.36003 0.333374 7.00003C0.333374 10.68 3.32004 13.6667 7.00004 13.6667C9.47337 13.6667 11.62 12.32 12.7734 10.32C7.76671 10.1534 4.71337 4.70003 7.22671 0.340027C7.14671 0.340027 7.07337 0.340027 6.99337 0.340027Z" fill="#0C152E"/>
</svg>
