<svg width="16" height="15" viewBox="0 0 16 15" fill="none" xmlns="http://www.w3.org/2000/svg">
<path d="M4.50663 3.22667L3.30663 2.03334L2.36663 2.97334L3.55996 4.16667L4.50663 3.22667ZM0.666626 7H2.66663V8.33334H0.666626V7ZM7.33329 0.366669H8.66663V2.33334H7.33329V0.366669ZM12.6933 2.03L13.632 2.968L12.4386 4.16134L11.5006 3.22267L12.6933 2.03ZM11.4933 12.1067L12.6866 13.3067L13.6266 12.3667L12.4266 11.1733L11.4933 12.1067ZM13.3333 7H15.3333V8.33334H13.3333V7ZM7.99996 3.66667C5.79329 3.66667 3.99996 5.46 3.99996 7.66667C3.99996 9.87334 5.79329 11.6667 7.99996 11.6667C10.2066 11.6667 12 9.87334 12 7.66667C12 5.46 10.2066 3.66667 7.99996 3.66667ZM7.99996 10.3333C6.52663 10.3333 5.33329 9.14 5.33329 7.66667C5.33329 6.19334 6.52663 5 7.99996 5C9.47329 5 10.6666 6.19334 10.6666 7.66667C10.6666 9.14 9.47329 10.3333 7.99996 10.3333ZM7.33329 13H8.66663V14.9667H7.33329V13ZM2.36663 12.36L3.30663 13.3L4.49996 12.1L3.55996 11.16L2.36663 12.36Z" fill="#DFE4ED"/>
</svg>
